<svg id="Capa_1" enable-background="new 0 0 512 512" height="512" viewBox="0 0 512 512" width="512" xmlns="http://www.w3.org/2000/svg"><g><path d="m324.296 165 74.999-165h-121.9l-20.628 44.785-20.047-44.785h-124.015l75 165h-187.705v347h512v-347zm-27.691-135h56.1l-61.363 135h-56.918zm-79.325 0 22.817 50.975-29.007 62.975-51.795-113.95zm264.72 452h-452v-287h452z"/><path d="m297 245h145v30h-145z"/><path d="m297 325.5h145v30h-145z"/><path d="m297 406h145v30h-145z"/><path d="m191.87 338.775c12.244-9.625 20.13-24.554 20.13-41.3 0-28.935-23.562-52.475-52.523-52.475-28.936 0-52.477 23.54-52.477 52.476 0 16.75 7.883 31.682 20.121 41.307-38.611 9.619-65.121 37.437-65.121 79.427v17.79h195v-17.79c0-41.368-25.849-69.662-65.13-79.435zm-32.393-63.775c12.419 0 22.523 10.082 22.523 22.476 0 12.42-10.104 22.524-22.523 22.524-12.394 0-22.477-10.104-22.477-22.524 0-12.394 10.083-22.476 22.477-22.476zm-66.294 131c7.793-37.817 51.902-41 66.317-41s58.524 3.183 66.317 41z"/></g></svg>